# xmcd
#
# Track frame offsets:
#	150
#	23678
#	39550
#	59614
#	79861
#	100912
#	113925
#	128231
#	141927
#	154812
#	167617
#
# Disc length: 2478 seconds
#
# Revision: 0
# Processed by: cddbd v1.4PL0 Copyright (c) Steve Scherf et al.
# Submitted via: dBpowerAMP V4.0
#
DISCID=9109ac0b
DTITLE=Steve Cherelle - Songs of John Denver
DYEAR=1900
DGENRE=
TTITLE0=Sunshine On My Shoulders
TTITLE1=I'm Sorry
TTITLE2=My Sweet Lady
TTITLE3=Back Home Again
TTITLE4=Today
TTITLE5=Annie's Song
TTITLE6=Take Me Home Country Roads
TTITLE7=Follow Me
TTITLE8=Perhaps Love
TTITLE9=This Old Guitar
TTITLE10=Leaving On A Jet Plane
EXTD=Steve Cherelle, a UK singer and John Denver impersonator\nsinging some of his favourite John Denver songs\n
EXTT0=
EXTT1=
EXTT2=
EXTT3=
EXTT4=
EXTT5=
EXTT6=
EXTT7=
EXTT8=
EXTT9=
EXTT10=
PLAYORDER=
